
<svg onload="startup(evt);"
	xmlns="http://www.w3.org/2000/svg"
     xmlns:xlink="http://www.w3.org/1999/xlink"
	  xmlns:ev="http://www.w3.org/2001/xml-events"
	 zoomAndPan="disable">
<script type="text/javascript" xlink:href="js/svgApp.js"></script>
  
<defs id="DEF">
<linearGradient id="rhue" x1="0" x2="50" y1="0" y2="0" gradientUnits="userSpaceOnUse">
<stop offset="0" id="ro0" style="stop-color: red"/>
<stop offset=".45" id="ro1" style="stop-color: blue"/>
<stop offset=".55" id="ro2" style="stop-color: red"/>
<stop offset="1" id="ro3" style="stop-color: blue"/>
</linearGradient>
</defs>
<g id="place" onmousedown="begin(evt);">
<rect id="bigR" x="0" y="0" width="100%" height="100%" fill="#ffe" />
<ellipse id="EL" cx="400" cy="-100" rx="3" ry="3" stroke="black" stroke-width="1" fill="green"></ellipse>
</g>
<ellipse id="STEL" cx="400" cy="-100" rx="5" ry="5" stroke="black" onmouseover="STELHI()" onmouseout="STELLO()" onmousedown="donepath()" stroke-width="1" fill="red"></ellipse>
<g id="menubar">
<rect x="0" y="0" width="100%" height="22" fill="#ddd" stroke="black" stroke-width="1" />
<text x="350" y="15">Click below to draw</text>
<g id="gridgroup">
<rect 
id="gridrect" x="35" y="0" width="40" height="20" fill="#FF8888" 
stroke="black" stroke-width="2" onclick="status()" 
onmouseover="document.getElementById('gridrect').setAttribute('fill','#ffff88')"
onmouseout="document.getElementById('gridrect').setAttribute('fill',gridcolor)"
/>
<text x="8" y="15">Grid</text>
<text id="gridstatus" x="45" y="15" onclick="status()"
onmouseover="document.getElementById('gridrect').setAttribute('fill','#ffff88')"
onmouseout="document.getElementById('gridrect').setAttribute('fill',gridcolor)"
>
Off</text>
</g>
<g id="selectM" visibility="hidden">
<rect x="0" y="0" width="90" height="250" fill="#eee" stroke="black" stroke-width="2"/>
</g>
<g id="toolgroup" transform="translate(85,0)">
<rect id="toolButton" x="40" y="0" width="65" height="20" onmousedown="ToolsView()"
onmouseover="document.getElementById('toolButton').setAttribute('fill','#ffff88')"
onmouseout="document.getElementById('toolButton').setAttribute('fill','#88ffff')"
fill="#88ffff" stroke="black" stroke-width="2"/>
<text x="8" y="15">Tool</text>
<text id="toolstatus" x="45" y="15" 
onmouseover="document.getElementById('toolButton').setAttribute('fill','#ffff88')"
onmouseout="document.getElementById('toolButton').setAttribute('fill','#88ffff')"
onmousedown="ToolsView()">Rectangle</text>
<g id="toolM" visibility="hidden">
<rect id="toolRectOuter" x="0" y="0" width="94" height="144" stroke="black" stroke-width="1"
fill="#ddd" onmouseout="hide(toolM)"/>
<rect id="toolRectInner" x="4" y="0" width="86" height="140" 
fill="#eee"/>
</g>
</g>
</g>
<g id="Bounder" visibility="hidden">
<rect id="BOut" x="4" y="0" width="86" height="140" 
fill="none" opacity=".4" stroke="black" stroke-width="5" 
onmouseover="Edge()" onmouseout="unEdge()" onmousedown="edgeGrab(evt)"/>
<rect id="BIn" x="0" y="0" width="94" height="144" stroke="black" stroke-width="1"
fill="#ddf" opacity=".1"/>
</g>
<g id="Widgets" visibility="hidden">
<g id="ColGrads" transform="translate(250,2)">
	<text x="-10" y="15">H</text>
	<rect id="Hue" x="0" y="0" width="50" height="18" fill="#f00" onmouseover="HSBPrep('Hue')"/>
	<text x="60" y="15">S</text>
	<rect id="Sat" x="70" y="0" width="50" height="18" fill="#f00" onmouseover="HSBPrep('Sat')"/>
	<text x="130" y="15">B</text>
	<rect id="Bri" x="140" y="0" width="50" height="18" fill="#f00" onmouseover="HSBPrep('Bri')"/>
	<text x="200" y="15">T</text>
	<rect id="Tra" x="210" y="0" width="50" height="18" fill="#f00" onmouseover="HSBPrep('Tra')"/>
	<g id="closebutton" transform="translate(270,6)">
		<rect x="0" y="0" width="15" height="10" stroke="#888800" stroke-width="2"
		fill="#fdd" onclick="HideWidgets()"/>
		<line x1="0" y1="0" x2="15" y2="10" stroke="#888800" stroke-width="2" onclick="HideWidgets()"/>
		<line x1="15" y1="0" x2="0" y2="10" stroke="#888800" stroke-width="2" onclick="HideWidgets()"/>
	</g>
</g>
</g>
<g onclick="top.about()">
<ellipse cx="700" cy="11" rx="10" ry="10" stroke="black" stroke-width="2" fill="yellow"/>
<text x="700" y="17" font-size="16" pointer-events="none" text-anchor="middle">?</text>
</g>
<g transform="translate(620,0)">
	<rect id="expButton" x="0" y="0" rx="5" width="60" height="20" onclick="exportFull()"
		onmouseover="svgDocument.getElementById('expButton').setAttribute('fill','#ffff88')"
		onmouseout="svgDocument.getElementById('expButton').setAttribute('fill','pink')"
		fill="pink" stroke="black" stroke-width="2"/>
	<text x="30" y="15" pointer-events="none" text-anchor="middle">Export</text>
</g>
<rect id="R" x="100" y="-100" width="4" height="4" fill="#f00" />
</svg>
